<svg width="66" height="64" viewBox="0 0 66 64" fill="none" xmlns="http://www.w3.org/2000/svg">
<ellipse cx="33" cy="31.7778" rx="33" ry="31.7778" fill="#303030"/>
<path d="M11.2252 33.0529C11.2252 33.3203 11.2088 33.5989 11.1758 33.8886H4.80052C4.84445 34.468 5.02566 34.9136 5.34415 35.2256C5.67362 35.5265 6.07448 35.6769 6.54673 35.6769C7.2496 35.6769 7.73832 35.376 8.01288 34.7744H11.0111C10.8573 35.3872 10.5773 35.9387 10.1709 36.429C9.77556 36.9192 9.27586 37.3036 8.67183 37.5822C8.06779 37.8607 7.39237 38 6.64557 38C5.74501 38 4.94329 37.805 4.24042 37.415C3.53754 37.0251 2.98842 36.468 2.59305 35.7437C2.19768 35.0195 2 34.1727 2 33.2033C2 32.234 2.19219 31.3872 2.57658 30.663C2.97195 29.9387 3.52107 29.3816 4.22394 28.9916C4.92682 28.6017 5.73403 28.4067 6.64557 28.4067C7.53515 28.4067 8.32588 28.5961 9.01778 28.9749C9.70967 29.3538 10.2478 29.8942 10.6322 30.5961C11.0276 31.2981 11.2252 32.117 11.2252 33.0529ZM8.34236 32.3008C8.34236 31.8106 8.17762 31.4206 7.84815 31.1309C7.51867 30.8412 7.10683 30.6964 6.61262 30.6964C6.14038 30.6964 5.73952 30.8357 5.41005 31.1142C5.09156 31.3928 4.89387 31.7883 4.81699 32.3008H8.34236Z" fill="white"/>
<path d="M20.3881 29.844C20.1794 29.454 19.8774 29.1588 19.482 28.9582C19.0976 28.7465 18.6419 28.6407 18.1147 28.6407C17.2032 28.6407 16.4728 28.9471 15.9237 29.5599C15.3746 30.1616 15.1 30.9694 15.1 31.9833C15.1 33.0641 15.3856 33.9109 15.9567 34.5237C16.5387 35.1253 17.335 35.4262 18.3453 35.4262C19.0372 35.4262 19.6193 35.2479 20.0915 34.8914C20.5748 34.5348 20.9262 34.0223 21.1459 33.3538H17.5711V31.2479H23.6993V33.9053C23.4906 34.6184 23.1337 35.2813 22.6285 35.8941C22.1343 36.507 21.5028 37.0028 20.734 37.3816C19.9652 37.7604 19.0976 37.9499 18.1312 37.9499C16.989 37.9499 15.9676 37.6992 15.0671 37.1978C14.1775 36.6852 13.4801 35.9777 12.9749 35.0752C12.4807 34.1727 12.2336 33.1421 12.2336 31.9833C12.2336 30.8245 12.4807 29.7939 12.9749 28.8914C13.4801 27.9777 14.1775 27.2702 15.0671 26.7688C15.9567 26.2563 16.9725 26 18.1147 26C19.4985 26 20.6626 26.3398 21.6071 27.0195C22.5626 27.6992 23.1941 28.6407 23.5016 29.844H20.3881Z" fill="white"/>
<path d="M33.9248 33.0529C33.9248 33.3203 33.9083 33.5989 33.8754 33.8886H27.5001C27.544 34.468 27.7252 34.9136 28.0437 35.2256C28.3732 35.5265 28.774 35.6769 29.2463 35.6769C29.9491 35.6769 30.4379 35.376 30.7124 34.7744H33.7106C33.5569 35.3872 33.2768 35.9387 32.8705 36.429C32.4751 36.9192 31.9754 37.3036 31.3714 37.5822C30.7673 37.8607 30.0919 38 29.3451 38C28.4445 38 27.6428 37.805 26.9399 37.415C26.2371 37.0251 25.688 36.468 25.2926 35.7437C24.8972 35.0195 24.6995 34.1727 24.6995 33.2033C24.6995 32.234 24.8917 31.3872 25.2761 30.663C25.6715 29.9387 26.2206 29.3816 26.9235 28.9916C27.6263 28.6017 28.4336 28.4067 29.3451 28.4067C30.2347 28.4067 31.0254 28.5961 31.7173 28.9749C32.4092 29.3538 32.9473 29.8942 33.3317 30.5961C33.7271 31.2981 33.9248 32.117 33.9248 33.0529ZM31.0419 32.3008C31.0419 31.8106 30.8772 31.4206 30.5477 31.1309C30.2182 30.8412 29.8064 30.6964 29.3122 30.6964C28.8399 30.6964 28.4391 30.8357 28.1096 31.1142C27.7911 31.3928 27.5934 31.7883 27.5165 32.3008H31.0419Z" fill="white"/>
<path d="M34.8508 33.1866C34.8508 32.2284 35.0265 31.3872 35.3779 30.663C35.7404 29.9387 36.2291 29.3816 36.8441 28.9916C37.4591 28.6017 38.1455 28.4067 38.9033 28.4067C39.5513 28.4067 40.1169 28.5404 40.6001 28.8078C41.0943 29.0752 41.4732 29.4262 41.7368 29.8607V28.5404H44.5538V37.8663H41.7368V36.546C41.4622 36.9805 41.0778 37.3315 40.5836 37.5989C40.1004 37.8663 39.5348 38 38.8868 38C38.14 38 37.4591 37.805 36.8441 37.415C36.2291 37.0139 35.7404 36.4513 35.3779 35.727C35.0265 34.9916 34.8508 34.1448 34.8508 33.1866ZM41.7368 33.2033C41.7368 32.4903 41.5391 31.9276 41.1437 31.5153C40.7593 31.1031 40.2871 30.8969 39.727 30.8969C39.1669 30.8969 38.6891 31.1031 38.2938 31.5153C37.9094 31.9164 37.7172 32.4735 37.7172 33.1866C37.7172 33.8997 37.9094 34.468 38.2938 34.8914C38.6891 35.3036 39.1669 35.5097 39.727 35.5097C40.2871 35.5097 40.7593 35.3036 41.1437 34.8914C41.5391 34.4791 41.7368 33.9164 41.7368 33.2033Z" fill="white"/>
<path d="M49.4087 30.0947C49.7382 29.5822 50.15 29.1811 50.6442 28.8914C51.1385 28.5905 51.6876 28.4401 52.2916 28.4401V31.4652H51.5173C50.8145 31.4652 50.2873 31.6212 49.9359 31.9331C49.5844 32.234 49.4087 32.7688 49.4087 33.5376V37.8663H46.5917V28.5404H49.4087V30.0947Z" fill="white"/>
<path d="M60.7217 37.8663L58.366 34.273L56.2903 37.8663H53.0944L56.801 31.8997L53.0121 26.1337H56.2903L58.6131 29.6769L60.6558 26.1337H63.8517L60.1781 32.0501L64 37.8663H60.7217Z" fill="#E0BE74"/>
</svg>
