<svg width="66" height="64" viewBox="0 0 66 64" fill="none" xmlns="http://www.w3.org/2000/svg">
<ellipse cx="33" cy="31.7778" rx="33" ry="31.7778" fill="#303030"/>
<path d="M62.3438 35.7019C61.8744 35.7019 61.4886 35.5663 61.1861 35.2952C60.8941 35.0136 60.748 34.6694 60.748 34.2626C60.748 33.8454 60.8941 33.4961 61.1861 33.2145C61.4886 32.9329 61.8744 32.7921 62.3438 32.7921C62.8027 32.7921 63.1782 32.9329 63.4702 33.2145C63.7726 33.4961 63.9239 33.8454 63.9239 34.2626C63.9239 34.6694 63.7726 35.0136 63.4702 35.2952C63.1782 35.5663 62.8027 35.7019 62.3438 35.7019Z" fill="#FF624C"/>
<path d="M53.1491 28.0832C53.4098 27.6764 53.7696 27.3479 54.2285 27.0976C54.6874 26.8473 55.2246 26.7221 55.8399 26.7221C56.5596 26.7221 57.2114 26.9046 57.7955 27.2697C58.3795 27.6347 58.8384 28.1562 59.1722 28.8341C59.5164 29.512 59.6885 30.2995 59.6885 31.1964C59.6885 32.0934 59.5164 32.886 59.1722 33.5744C58.8384 34.2523 58.3795 34.779 57.7955 35.1545C57.2114 35.5195 56.5596 35.702 55.8399 35.702C55.235 35.702 54.6979 35.5769 54.2285 35.3266C53.7696 35.0762 53.4098 34.7529 53.1491 34.3566V39.7383H50.4739V26.8473H53.1491V28.0832ZM56.9663 31.1964C56.9663 30.5289 56.7786 30.0074 56.4031 29.632C56.0381 29.2461 55.5844 29.0531 55.0421 29.0531C54.5101 29.0531 54.0565 29.2461 53.681 29.632C53.3159 30.0179 53.1334 30.5446 53.1334 31.2121C53.1334 31.8796 53.3159 32.4063 53.681 32.7922C54.0565 33.178 54.5101 33.371 55.0421 33.371C55.574 33.371 56.0277 33.178 56.4031 32.7922C56.7786 32.3958 56.9663 31.8639 56.9663 31.1964Z" fill="white"/>
<path d="M44.4868 35.702C43.6316 35.702 42.8598 35.5195 42.1714 35.1545C41.4935 34.7894 40.9564 34.2679 40.56 33.59C40.1741 32.9121 39.9812 32.1194 39.9812 31.2121C39.9812 30.3151 40.1794 29.5277 40.5757 28.8498C40.972 28.1614 41.5144 27.6347 42.2027 27.2697C42.8911 26.9046 43.6629 26.7221 44.5181 26.7221C45.3733 26.7221 46.1451 26.9046 46.8335 27.2697C47.5218 27.6347 48.0642 28.1614 48.4605 28.8498C48.8568 29.5277 49.055 30.3151 49.055 31.2121C49.055 32.109 48.8516 32.9017 48.4448 33.59C48.0485 34.2679 47.501 34.7894 46.8022 35.1545C46.1138 35.5195 45.342 35.702 44.4868 35.702ZM44.4868 33.3866C44.9979 33.3866 45.4307 33.1989 45.7853 32.8234C46.1503 32.448 46.3328 31.9108 46.3328 31.2121C46.3328 30.5133 46.1555 29.9762 45.8009 29.6007C45.4568 29.2252 45.0291 29.0375 44.5181 29.0375C43.9966 29.0375 43.5638 29.2252 43.2196 29.6007C42.8754 29.9657 42.7033 30.5028 42.7033 31.2121C42.7033 31.9108 42.8702 32.448 43.204 32.8234C43.5481 33.1989 43.9757 33.3866 44.4868 33.3866Z" fill="white"/>
<path d="M35.3367 26.7534C36.338 26.7534 37.1411 27.0872 37.746 27.7547C38.3509 28.4117 38.6534 29.3191 38.6534 30.4768V35.5769H35.9938V30.8366C35.9938 30.2526 35.8426 29.7989 35.5401 29.4756C35.2377 29.1522 34.8309 28.9906 34.3199 28.9906C33.8088 28.9906 33.4021 29.1522 33.0996 29.4756C32.7971 29.7989 32.6459 30.2526 32.6459 30.8366V35.5769H29.9707V24H32.6459V28.0206C32.9171 27.6347 33.2873 27.3271 33.7567 27.0976C34.226 26.8681 34.7527 26.7534 35.3367 26.7534Z" fill="white"/>
<path d="M24.7987 35.702C24.0373 35.702 23.3594 35.5716 22.7649 35.3109C22.1704 35.0502 21.7011 34.6956 21.3569 34.2471C21.0127 33.7882 20.8198 33.2771 20.7781 32.7139H23.422C23.4533 33.0164 23.5941 33.2615 23.8444 33.4492C24.0947 33.637 24.4024 33.7308 24.7674 33.7308C25.1012 33.7308 25.3567 33.6682 25.534 33.5431C25.7217 33.4075 25.8156 33.2354 25.8156 33.0268C25.8156 32.7765 25.6852 32.594 25.4245 32.4793C25.1637 32.3541 24.7413 32.2185 24.1573 32.0725C23.5315 31.9265 23.01 31.7753 22.5928 31.6188C22.1756 31.4519 21.8158 31.1964 21.5134 30.8522C21.2109 30.4976 21.0597 30.0231 21.0597 29.4286C21.0597 28.928 21.1953 28.4743 21.4664 28.0675C21.748 27.6503 22.1548 27.3218 22.6867 27.0819C23.229 26.842 23.8705 26.7221 24.611 26.7221C25.7061 26.7221 26.5665 26.9933 27.1923 27.5356C27.8285 28.078 28.1935 28.7976 28.2874 29.6946H25.8156C25.7739 29.3921 25.6383 29.1522 25.4088 28.9749C25.1898 28.7976 24.8978 28.709 24.5327 28.709C24.2199 28.709 23.98 28.7715 23.8131 28.8967C23.6462 29.0114 23.5628 29.1731 23.5628 29.3817C23.5628 29.632 23.6932 29.8197 23.9539 29.9449C24.2251 30.07 24.6423 30.1952 25.2055 30.3203C25.8521 30.4872 26.3788 30.6541 26.7855 30.821C27.1923 30.9774 27.5469 31.2381 27.8494 31.6032C28.1623 31.9578 28.3239 32.4375 28.3343 33.0425C28.3343 33.5535 28.1883 34.0124 27.8963 34.4192C27.6147 34.8155 27.2027 35.1284 26.6604 35.3578C26.1285 35.5873 25.5079 35.702 24.7987 35.702Z" fill="white"/>
<path d="M18.9002 28.9747V31.1962H12.0166V28.9747H18.9002Z" fill="white"/>
<path d="M10.7609 31.0713C10.7609 31.3216 10.7452 31.5823 10.714 31.8535H4.65956C4.70127 32.3958 4.87336 32.813 5.17582 33.105C5.48871 33.3866 5.86939 33.5274 6.31787 33.5274C6.98536 33.5274 7.44948 33.2458 7.71022 32.6826H10.5575C10.4115 33.2563 10.1455 33.7725 9.75965 34.2314C9.38418 34.6903 8.90963 35.0502 8.336 35.3109C7.76237 35.5716 7.12095 35.702 6.41173 35.702C5.5565 35.702 4.79514 35.5195 4.12764 35.1545C3.46015 34.7894 2.93867 34.2679 2.5632 33.59C2.18773 32.9121 2 32.1194 2 31.2121C2 30.3047 2.18252 29.512 2.54756 28.8341C2.92302 28.1562 3.4445 27.6347 4.112 27.2697C4.7795 26.9046 5.54607 26.7221 6.41173 26.7221C7.25653 26.7221 8.00747 26.8994 8.66453 27.254C9.3216 27.6086 9.83265 28.1145 10.1977 28.7715C10.5732 29.4286 10.7609 30.1952 10.7609 31.0713ZM8.02311 30.3673C8.02311 29.9084 7.86667 29.5433 7.55378 29.2722C7.24089 29.001 6.84978 28.8654 6.38045 28.8654C5.93197 28.8654 5.55129 28.9958 5.2384 29.2565C4.93594 29.5172 4.74821 29.8875 4.6752 30.3673H8.02311Z" fill="white"/>
</svg>
